<svg width="75" height="75" viewBox="0 0 75 75" fill="none" xmlns="http://www.w3.org/2000/svg">
<path d="M3.5 31.4189L26 31.419" stroke="#0A9995" stroke-width="2" stroke-dasharray="3 2"/>
<path d="M49 40.5405L71.5 40.5405" stroke="#0A9995" stroke-width="2" stroke-dasharray="3 2"/>
<path fill-rule="evenodd" clip-rule="evenodd" d="M7.43892 0.2021C4.91672 1.11118 3.71428 3.7651 4.77008 6.15509L5.03403 6.78558L4.30083 7.22546C2.42385 8.35447 1.67599 10.7445 2.57049 12.7532L2.8491 13.3984L2.20389 13.7503C-0.0690217 14.9526 -0.714235 18.1344 0.884135 20.2311L1.36804 20.8616L0.884135 21.4921C-0.802219 23.7208 0.0189621 27.0199 2.55582 28.1489L3.18637 28.4275V33.2954C3.18637 35.9787 3.24503 38.3833 3.33301 38.6619C3.34593 38.7078 3.35677 38.7514 3.36705 38.7926C3.39348 38.8987 3.41619 38.9899 3.46081 39.0682C3.73284 39.5458 4.81929 39.5468 12.5294 39.5543C13.1153 39.5549 13.7394 39.5555 14.4043 39.5563H24.8157L26.7953 41.6678C29.3322 44.3657 30.2853 45.9492 30.5493 47.87L30.6519 48.6471H28.8629C27.1619 48.6471 27.0593 48.6618 26.722 49.0137L26.3554 49.3656V60.2452C26.3554 71.0515 26.3554 71.1248 26.0475 71.6673C25.6809 72.3125 24.8304 72.8403 24.1705 72.8403C23.4226 72.8403 22.5868 72.3271 22.2495 71.6673C21.9855 71.1395 21.9562 70.8169 21.9562 67.3712C21.9562 63.8375 21.9416 63.6469 21.6629 63.339C21.2524 62.8991 20.4605 62.8991 20.0499 63.339C19.7713 63.6469 19.7566 63.8375 19.7566 67.3712C19.7566 70.7289 19.7273 71.1395 19.478 71.638C19.1554 72.2685 18.2462 72.8403 17.5717 72.8403C16.8238 72.8403 15.988 72.3271 15.6507 71.6673C15.3868 71.1395 15.3574 70.8169 15.3574 67.3712C15.3574 63.8375 15.3428 63.6469 15.0642 63.339C14.6536 62.8991 13.8617 62.8991 13.4511 63.339C13.1725 63.6322 13.1579 63.8375 13.1579 66.2715C13.1579 69.292 13.0259 69.7465 12.0141 70.3184C11.2955 70.7142 10.6796 70.7289 9.93179 70.3477C8.90531 69.8198 8.75867 69.3213 8.75867 66.2715C8.75867 63.8375 8.74401 63.6322 8.46539 63.339C8.0548 62.8991 7.26295 62.8991 6.85236 63.339C6.60307 63.6176 6.55908 63.8522 6.55908 65.2011C6.55908 66.5354 6.51509 66.8287 6.22181 67.3272C5.40063 68.7641 3.59696 68.7934 2.54116 67.3712C2.23322 66.9606 2.23322 66.858 2.23322 58.2804C2.23322 49.7028 2.23322 49.5855 2.57049 48.4565C2.98108 47.0049 3.84625 45.3041 4.71142 44.1897C5.48861 43.178 5.59126 42.5475 5.06336 42.049C4.3155 41.3598 3.61163 41.8144 2.29187 43.7938C1.45603 45.0695 0.796151 46.5797 0.356233 48.2659C0.0482898 49.4242 0.0336259 49.6882 0.0336259 58.3977V67.3419L0.385561 68.031C0.840143 68.9547 1.73464 69.8638 2.57049 70.245C3.50898 70.6703 5.19533 70.6849 6.11916 70.2597L6.77904 69.9665L7.21896 70.6996C8.34808 72.5764 10.7383 73.3242 12.7473 72.4298L13.3925 72.1512L13.7444 72.7963C14.9469 75.069 18.1289 75.7142 20.2259 74.116L20.8564 73.6321L21.487 74.116C23.7159 75.8021 27.0153 74.981 28.1444 72.4444L28.423 71.8139H33.2914C35.9749 71.8139 38.3798 71.7553 38.6585 71.6673C38.7044 71.6544 38.748 71.6435 38.7893 71.6332C38.8977 71.6063 38.9904 71.5832 39.0699 71.5367C39.5424 71.2601 39.5435 70.156 39.5509 62.4842C39.5515 61.8991 39.5521 61.2758 39.553 60.6118V50.2014L41.4006 48.4418C43.6002 46.3598 44.1721 45.9052 45.3892 45.2894C46.313 44.8202 47.7061 44.395 48.3073 44.395C48.6446 44.395 48.6446 44.4243 48.6446 46.1545C48.6446 47.8407 48.6593 47.9433 49.0112 48.2806L49.3631 48.6471H60.2291C70.8311 48.6471 71.1098 48.6471 71.667 48.9404C72.3269 49.2776 72.8401 50.1134 72.8401 50.8612C72.8401 51.5356 72.2682 52.4447 71.6377 52.7673C71.1391 53.0166 70.7285 53.0459 67.3704 53.0459C63.8364 53.0459 63.6458 53.0605 63.3379 53.3391C62.8979 53.7497 62.8979 54.5415 63.3379 54.952C63.6458 55.2306 63.8364 55.2453 67.3704 55.2453C70.8165 55.2453 71.1391 55.2746 71.667 55.5385C72.3269 55.8758 72.8401 56.7115 72.8401 57.4593C72.8401 58.1191 72.3122 58.9695 71.667 59.3361C71.1391 59.6294 70.9045 59.644 67.3851 59.644C63.8364 59.644 63.6458 59.6587 63.3379 59.9373C62.8979 60.3478 62.8979 61.1396 63.3379 61.5502C63.6311 61.8287 63.8364 61.8434 66.2707 61.8434C69.3208 61.8434 69.8193 61.99 70.3472 63.0164C70.7285 63.7495 70.7138 64.38 70.3326 65.0692C69.746 66.1102 69.2914 66.2422 66.2853 66.2422C63.8364 66.2422 63.6311 66.2568 63.3379 66.5354C62.8979 66.946 62.8979 67.7377 63.3379 68.1483C63.6165 68.3976 63.8511 68.4415 65.1855 68.4415C67.4291 68.4415 68.2649 68.9694 68.3969 70.4796C68.4702 71.2274 68.133 71.9019 67.3704 72.4591C66.9599 72.767 66.8572 72.767 58.2788 72.767C49.7004 72.767 49.5831 72.767 48.454 72.4298C47.0022 72.0192 45.3012 71.1541 44.1868 70.289C43.1749 69.5119 42.5444 69.4093 42.0458 69.9371C41.3566 70.6849 41.8112 71.3887 43.7908 72.7083C45.0666 73.5441 46.577 74.2039 48.2633 74.6438C49.4218 74.9517 49.6857 74.9664 58.3961 74.9664H67.3411L68.0303 74.6145C68.9542 74.1599 69.7753 73.3535 70.2152 72.4591C70.6845 71.506 70.6992 69.8638 70.2592 68.8814L69.966 68.2216L70.6992 67.7817C72.5761 66.6527 73.324 64.2627 72.4295 62.254L72.1509 61.6088L72.7961 61.2569C75.069 60.0546 75.7142 56.8728 74.1159 54.7761L73.632 54.1456L74.1159 53.5151C75.8022 51.2864 74.981 47.9873 72.4442 46.8583L71.8136 46.5797V41.7117C71.8136 39.0285 71.755 36.6238 71.667 36.3453C71.6541 36.2993 71.6432 36.2558 71.633 36.2146C71.6065 36.1085 71.5838 36.0173 71.5392 35.939C71.2672 35.4614 70.1807 35.4603 62.4706 35.4529C61.8847 35.4523 61.2606 35.4517 60.5957 35.4508H50.1843L48.2047 33.3394C45.6678 30.6415 44.7147 29.058 44.4507 27.1225L44.3481 26.3601H46.1371C47.8381 26.3601 47.9407 26.3454 48.278 25.9935L48.6446 25.6416V14.7767C48.6446 4.17565 48.6446 3.89706 48.9379 3.33988C49.2751 2.68007 50.111 2.16688 50.8442 2.16688C51.5774 2.16688 52.4132 2.68007 52.7505 3.33988C53.0145 3.86774 53.0438 4.19031 53.0438 7.636C53.0438 11.1697 53.0584 11.3603 53.3371 11.6682C53.7476 12.1081 54.5395 12.1081 54.9501 11.6682C55.2287 11.3603 55.2434 11.1697 55.2434 7.636C55.2434 4.19031 55.2727 3.86774 55.5366 3.33988C55.8739 2.68007 56.7098 2.16688 57.443 2.16688C58.1762 2.16688 59.012 2.68007 59.3493 3.33988C59.6132 3.86774 59.6426 4.19031 59.6426 7.636C59.6426 11.1697 59.6572 11.3603 59.9358 11.6682C60.1411 11.8735 60.4197 11.9908 60.7423 11.9908C61.065 11.9908 61.3436 11.8735 61.5489 11.6682C61.8275 11.375 61.8421 11.1697 61.8421 8.7357C61.8421 5.68589 61.9888 5.18736 63.0153 4.65951C63.7485 4.29295 64.335 4.29295 65.0682 4.65951C66.0947 5.18736 66.2413 5.68589 66.2413 8.7357C66.2413 11.1697 66.256 11.375 66.5346 11.6682C66.7399 11.8735 67.0185 11.9908 67.3411 11.9908C68.2356 11.9908 68.4409 11.5949 68.4409 9.82073C68.4409 7.57736 68.9688 6.7416 70.4792 6.60963C71.2271 6.53632 71.9016 6.87355 72.4588 7.636C72.7668 8.04656 72.7668 8.14919 72.7668 16.7268C72.7668 25.3044 72.7668 25.4217 72.4295 26.5507C72.0189 28.0023 71.1537 29.7031 70.2886 30.8175C69.5114 31.8292 69.4087 32.4597 69.9366 32.9582C70.6845 33.6473 71.3884 33.1928 72.7081 31.2134C73.544 29.9377 74.2038 28.4275 74.6438 26.7413C74.9517 25.583 74.9664 25.319 74.9664 16.6095V7.66533L74.6144 6.97619C74.1599 6.05245 73.2653 5.14337 72.4295 4.76215C71.491 4.33693 69.8047 4.32227 68.8808 4.74749L68.221 5.04074L67.781 4.30761C66.6519 2.43081 64.2617 1.68302 62.2527 2.57743L61.6075 2.85602L61.2556 2.21087C60.0531 -0.0618222 56.8711 -0.706981 54.7741 0.891236L54.1436 1.3751L53.513 0.891236C51.2548 -0.838944 47.7941 0.0994612 46.7969 2.70939L46.5477 3.33988H41.298C36.0776 3.33988 36.0483 3.33989 35.7403 3.66246C35.447 3.97037 35.447 4.117 35.447 14.3954V24.8205L33.3354 26.7999C30.6373 29.3366 29.0536 30.2896 27.1326 30.5536L26.3554 30.6562V28.8674C26.3554 27.1665 26.3407 27.0639 25.9888 26.7266L25.6369 26.3601H14.7709C4.16886 26.3601 3.89024 26.3601 3.33301 26.0668C2.67314 25.7296 2.1599 24.8938 2.1599 24.1607C2.1599 23.4569 2.64381 22.6504 3.30368 22.2839C3.86091 21.976 4.02222 21.9613 7.61488 21.9613C11.1636 21.9613 11.3542 21.9466 11.6621 21.6681C12.1021 21.2575 12.1021 20.4657 11.6621 20.0552C11.3542 19.7766 11.1636 19.7619 7.61488 19.7619C4.02222 19.7619 3.86091 19.7473 3.30368 19.4393C2.64381 19.0728 2.1599 18.2663 2.1599 17.5625C2.1599 16.8294 2.67314 15.9936 3.33301 15.6564C3.86091 15.3925 4.18352 15.3632 7.62955 15.3632C11.1636 15.3632 11.3542 15.3485 11.6621 15.0699C12.1021 14.6594 12.1021 13.8676 11.6621 13.457C11.3689 13.1784 11.1636 13.1638 8.71468 13.1638C6.2658 13.1638 6.04584 13.1345 5.50328 12.8412C4.44747 12.24 4.09554 11.0377 4.65277 9.93802C5.18067 8.91165 5.67924 8.76502 8.72934 8.76502C11.1636 8.76502 11.3689 8.75036 11.6621 8.47177C12.1021 8.06122 12.1021 7.26944 11.6621 6.85889C11.3835 6.60963 11.1489 6.56564 9.81448 6.56564C7.57089 6.56564 6.73505 6.03779 6.60307 4.52755C6.52975 3.77976 6.86702 3.10528 7.62955 2.54811C8.04014 2.2402 8.14279 2.24019 16.7212 2.24019C25.2996 2.24019 25.4169 2.24019 26.546 2.57743C27.9978 2.98798 29.6988 3.85307 30.8132 4.71816C31.8251 5.49528 32.4556 5.59791 32.9542 5.07006C33.6434 4.32227 33.1888 3.61847 31.2092 2.29884C29.9774 1.4924 28.4817 0.832586 26.8246 0.363385C25.7458 0.0572398 25.4062 0.0554846 17.0433 0.0122445L16.8972 0.0114867C9.13993 -0.0178384 8.02547 -0.00317512 7.43892 0.2021ZM39.8462 14.85V24.1607H38.7464H37.6466V14.85V5.53926H38.7464H39.8462V14.85ZM46.445 14.85V24.1607H44.2454H42.0458V14.85V5.53926H44.2454H46.445V14.85ZM42.2804 27.4598C42.5004 28.8087 43.2189 30.6122 43.9815 31.7705C44.3187 32.2837 45.5065 33.6913 46.621 34.879L48.6446 37.0344L48.6153 39.571L48.5713 42.1076L47.5448 42.2836C46.1957 42.5035 44.3921 43.222 43.2336 43.9844C42.7204 44.3217 41.3126 45.5093 40.1248 46.6237L37.9692 48.6471L35.4324 48.6178L32.8955 48.5738L32.7196 47.5474C32.4996 46.1985 31.7811 44.395 31.0185 43.2366C30.6813 42.7235 29.4935 41.3159 28.379 40.1282L26.3554 37.9728L26.3847 35.4362L26.4287 32.8996L27.4552 32.7236C28.8043 32.5037 30.6079 31.7852 31.7664 31.0228C32.2943 30.6855 33.6727 29.4978 34.8458 28.3835L36.9868 26.3747L39.5383 26.404L42.1045 26.4334L42.2804 27.4598ZM24.1558 30.7588V32.9582V35.1576V36.2573V37.357H14.8442H5.5326V36.2573V35.1576V32.9582V30.7588V28.5594H14.8442H24.1558V30.7588ZM69.4674 38.7499V39.8496V42.049V44.2484V46.4477H60.1558H50.8442V44.2484V42.049V39.8496V38.7499V37.6502H60.1558H69.4674V38.7499ZM32.9542 60.2305V69.6146H30.7546H28.555V60.2305V50.8465H30.7546H32.9542V60.2305ZM37.3534 60.2305V69.6146H36.2536H35.1538V60.2305V50.8465H36.2536H37.3534V60.2305Z" fill="black"/>
</svg>
