<svg width="75" height="75" viewBox="0 0 75 75" fill="none" xmlns="http://www.w3.org/2000/svg">
<path d="M24.2168 68.9189H50.5681" stroke="#0A9995" stroke-width="2" stroke-dasharray="4 2"/>
<path fill-rule="evenodd" clip-rule="evenodd" d="M10.0787 18.435C14.0521 8.54094 23.1343 1.50514 33.701 0.171263C35.8114 -0.107237 40.0323 -0.0339529 42.0408 0.30318C52.3164 2.01816 60.8455 8.84876 64.6879 18.435C66.1288 22.0409 66.7838 25.5441 66.7838 29.5897C66.7838 34.4122 65.8959 38.4724 63.9456 42.5767C62.1699 46.2851 60.6999 48.2786 56.7119 52.3535L53.6846 55.4463V58.5245C53.6846 61.4414 53.67 61.632 53.3498 62.2476C53.1315 62.6727 52.7531 63.0684 52.2582 63.4056L51.5014 63.9039V66.557C51.5014 68.3746 51.4431 69.4593 51.2976 70.0016C51.0356 71.0277 49.3909 74.5309 49.0562 74.7801C48.6923 75.0733 26.0743 75.0733 25.7104 74.7801C25.3757 74.5309 23.731 71.0277 23.469 70.0016C23.3235 69.4593 23.2653 68.3746 23.2653 66.557V63.9039L22.5084 63.4056C22.0135 63.0684 21.6351 62.6727 21.4168 62.2476C21.0966 61.632 21.082 61.4414 21.082 58.5098V55.4317L18.2002 52.5001C16.5992 50.873 14.9109 49.0408 14.4306 48.4252C11.0539 44.1304 8.97254 39.176 8.20114 33.6793C7.99738 32.2575 7.96827 31.2607 8.02649 28.8422C8.12837 24.6207 8.63778 22.0409 10.0787 18.435ZM54.5578 8.24778C50.8901 5.25757 46.2471 3.22011 41.4877 2.50187C40.0323 2.282 36.5974 2.12077 35.564 2.22337C31.4304 2.64845 28.7087 3.38134 25.5067 4.90577C22.4356 6.38622 20.1214 8.08654 17.5889 10.7396C15.5804 12.8357 14.3432 14.624 13.0187 17.3064C11.8253 19.7103 11.083 21.865 10.6027 24.3422C10.1515 26.6142 10.035 31.1435 10.3698 33.4741C11.083 38.3259 12.8004 42.5473 15.624 46.3731C16.3227 47.3258 18.0401 49.2314 19.9904 51.2102L23.1925 54.4936L23.2653 57.9235C23.338 61.1189 23.3526 61.3535 23.6291 61.5587C23.8765 61.7492 24.5752 61.7785 27.8936 61.7932H31.8525L31.8234 45.0978L31.7797 28.4024L31.3431 27.7575C30.79 26.9513 29.6111 26.321 28.6505 26.321C27.6899 26.321 26.5109 26.9513 25.9579 27.7575C25.5649 28.3438 25.5212 28.505 25.5212 29.6044C25.5212 30.6744 25.5649 30.8796 25.9142 31.422C26.4236 32.1842 27.3842 32.7558 28.3739 32.8731C29.3346 32.9904 29.6984 33.3275 29.6402 34.0457C29.6111 34.4268 29.4801 34.6614 29.189 34.8812C28.8251 35.1451 28.7233 35.1597 27.85 35.0132C27.326 34.9252 26.5983 34.6907 26.2199 34.5148C25.2738 34.0604 24.1968 32.9464 23.731 31.9203C23.3817 31.1874 23.338 30.9089 23.338 29.5458C23.338 28.0653 23.3526 27.9627 23.8329 27.0832C24.4151 25.9985 25.3466 25.1191 26.4673 24.5767C27.1514 24.2542 27.457 24.1956 28.6505 24.1956C29.844 24.1956 30.1496 24.2542 30.8628 24.5914C31.969 25.1044 32.8713 25.9692 33.4681 27.0832C33.9625 28.0058 33.963 28.0213 34.0355 30.4184L34.0357 30.4252L34.1085 32.8438H37.3833H40.6581L40.7309 30.4252C40.8037 28.0067 40.8037 28.0067 41.2985 27.0832C41.8807 25.9985 42.8122 25.1191 43.9329 24.5767C44.617 24.2542 44.9226 24.1956 46.1161 24.1956C47.3824 24.1956 47.5861 24.2396 48.4594 24.6793C50.337 25.5881 51.3849 27.2445 51.4722 29.3992C51.5305 30.8943 51.2103 31.935 50.337 33.0343C49.1289 34.5734 47.688 35.1158 44.7771 35.1158H42.9141V48.4545V61.7932H46.8875C50.1914 61.7785 50.8901 61.7492 51.1375 61.5587C51.414 61.3535 51.4286 61.1189 51.5014 57.9235L51.5741 54.4936L54.7762 51.2102C56.5373 49.4219 58.4439 47.3112 59.0116 46.549C61.646 42.9871 63.2033 39.5425 64.1203 35.1891C64.4987 33.4008 64.5278 33.049 64.5278 29.6923C64.5278 26.5116 64.4841 25.9106 64.193 24.4301C63.3489 20.2526 61.515 16.1044 59.1135 12.9383C58.1383 11.6631 55.8532 9.30316 54.5578 8.24778ZM48.8087 27.7575C48.5176 27.3471 48.0956 26.9953 47.5861 26.7168C47.0622 26.4529 46.5673 26.321 46.1161 26.321C45.1555 26.321 43.9766 26.9513 43.4235 27.7575C42.9874 28.3869 42.9869 28.417 42.9434 30.6653L42.9432 30.6744L42.8995 32.9464L44.9808 32.8878C46.9312 32.8438 47.1058 32.8145 47.7317 32.448C48.0956 32.2282 48.5904 31.7738 48.8233 31.4366C49.2017 30.8796 49.2454 30.7037 49.2454 29.6044C49.2454 28.505 49.2017 28.3438 48.8087 27.7575ZM40.629 41.8584C40.6872 41.8584 40.7309 40.334 40.7309 38.4871V35.1158H37.3833H34.0357V38.4871C34.0357 40.4366 34.0939 41.8584 34.1667 41.8584C34.2395 41.8584 34.647 41.6825 35.0837 41.448C35.7823 41.0962 36.0006 41.0522 37.3833 41.0522C38.7514 41.0522 38.9989 41.0962 39.7266 41.448C40.1778 41.6825 40.5853 41.8584 40.629 41.8584ZM40.4543 45.3323C40.1924 44.5701 39.4792 43.7786 38.766 43.4561C37.6162 42.9284 36.0443 43.1776 35.1564 44.0278C34.2832 44.8486 34.1376 45.391 34.1231 47.6483L34.1085 49.7004H37.3833H40.6581V47.7949C40.6436 46.6222 40.5708 45.6695 40.4543 45.3323ZM40.7309 61.7932V56.8828V51.9724H37.3833H34.0357V56.8828V61.7932H37.3833H40.7309ZM49.3181 66.1906V65.0912V63.9919H37.3833H25.4485V65.0912V66.1906V68.3893V68.7557C25.4485 69.1955 25.987 70.6466 26.5983 71.8779L27.0495 72.7867H37.3833H47.7171L48.1683 71.8779C48.7796 70.6466 49.3181 69.1955 49.3181 68.7557V68.3893V66.1906Z" fill="black"/>
<path d="M47.5261 21.2838C47.5261 15.6863 42.9885 11.1487 37.391 11.1487C31.7935 11.1487 27.2559 15.6863 27.2559 21.2838" stroke="#0A9995" stroke-dasharray="4 3"/>
</svg>
