<svg width="75" height="75" viewBox="0 0 75 75" fill="none" xmlns="http://www.w3.org/2000/svg">
<path fill-rule="evenodd" clip-rule="evenodd" d="M23.9706 0.087936C23.8681 0.131906 23.6922 0.351754 23.5749 0.571602C23.399 0.92336 23.3551 1.74413 23.3551 4.93926V8.88188L22.7835 8.98448C22.4757 9.02845 21.6989 9.33623 21.0393 9.65868C19.1633 10.5967 17.8149 12.2089 17.1114 14.3488C16.8769 15.0523 16.8476 15.8584 16.7889 20.9442L16.745 26.7189L16.1294 27.3931C13.5938 30.1193 11.3074 34.2817 10.1348 38.3123C6.25085 51.6937 12.5971 65.9399 25.1871 72.1103C34.157 76.5073 44.9735 75.8478 53.2985 70.3955C55.2185 69.1351 56.0832 68.4315 57.8567 66.7021C64.0564 60.6049 67.1636 52.0748 66.2988 43.5007C65.7126 37.7553 63.2942 32.01 59.7327 27.8915L58.6921 26.6896L58.6481 20.9296C58.5895 15.8584 58.5602 15.0523 58.3257 14.3488C57.8567 12.9418 57.3437 12.1063 56.2737 11.0511C55.1745 9.96647 54.0899 9.33624 52.8001 9.02845L52.082 8.85257V5.11514C52.082 1.28977 51.994 0.542292 51.5397 0.190534C51.3198 0.0293119 48.9161 1.86424e-07 37.7185 1.86424e-07C30.2583 1.86424e-07 24.0732 0.0439663 23.9706 0.087936ZM32.149 13.1763H28.8513H25.5536V7.68004V2.18383H28.8513H32.149H34.3475H37.6452H40.943H43.288H46.5125H49.7369V7.68004V13.1763H46.5125H43.288H40.943H37.6452H34.3475H32.149ZM23.3551 12.2529V13.3961L22.8128 13.6892C22.1532 14.041 21.479 14.9644 21.3032 15.7558C21.2299 16.0636 21.1566 17.925 21.1566 19.889C21.1566 22.7323 21.2006 23.5385 21.3764 23.8609C21.8015 24.711 22.2705 24.667 23.9706 23.6264C32.3835 18.5113 43.0682 18.5113 51.4664 23.6264C53.1666 24.667 53.6356 24.711 54.0606 23.8609C54.2365 23.5385 54.2804 22.7323 54.2804 19.889C54.2804 17.925 54.2072 16.0636 54.1339 15.7558C53.958 14.9644 53.2838 14.041 52.6243 13.6892L52.082 13.3961V12.2529C52.082 11.4028 52.1259 11.1243 52.2725 11.1243C52.3898 11.1243 52.8734 11.3295 53.3717 11.5787C54.8814 12.3262 56.0099 13.8505 56.3324 15.5506C56.4203 15.961 56.4789 18.819 56.4789 21.9116V27.5397L57.3876 28.5217C65.0091 36.9199 66.4161 49.3047 60.8319 59.2272C59.1171 62.3051 56.347 65.4709 53.6209 67.5082C50.2645 70.0145 46.3659 71.6853 41.9689 72.4914C40.0343 72.8432 35.4028 72.8432 33.4681 72.4914C25.876 71.099 19.603 66.9952 15.4845 60.7222C11.3807 54.4785 10.1642 46.6226 12.1428 39.265C13.1834 35.4249 15.206 31.7168 17.9908 28.5803L18.9581 27.4957V21.8969C18.9581 18.7164 19.0167 15.961 19.1047 15.5067C19.4271 13.8211 20.5557 12.3262 22.0653 11.5787C22.5636 11.3295 23.0473 11.1243 23.1645 11.1243C23.3111 11.1243 23.3551 11.4028 23.3551 12.2529ZM51.4224 15.4627C51.9647 15.6825 52.082 16.2835 52.082 18.8777V21.3693L50.1473 20.4459C46.278 18.5992 43.0242 17.7931 38.7445 17.6172C34.0983 17.4267 29.6134 18.3647 25.3044 20.4313L23.3551 21.3693V18.8777C23.3551 16.3567 23.4723 15.6679 23.9706 15.4773C24.2491 15.3601 51.1293 15.3601 51.4224 15.4627Z" fill="black"/>
<path d="M34.9354 22.1167C31.2566 22.5711 27.5045 23.9488 24.412 25.9714C22.3454 27.3198 21.8911 27.7595 21.8911 28.3604C21.8911 28.976 22.3308 29.445 22.9024 29.445C23.1369 29.445 23.5766 29.2398 23.9576 28.9613C26.9329 26.7042 29.8789 25.3558 33.4698 24.5937C35.551 24.154 39.435 24.11 41.6042 24.5204C50.7645 26.2352 57.785 33.2557 59.4998 42.4161C59.705 43.4714 59.7783 44.5559 59.7783 46.3001C59.7783 48.0442 59.705 49.1288 59.4998 50.1841C57.7997 59.3298 50.7499 66.3796 41.6042 68.0798C39.5815 68.4608 35.8588 68.4608 33.8362 68.0798C28.9116 67.1564 24.2068 64.4889 21.041 60.8101C16.2336 55.2259 14.5188 47.9416 16.3216 40.8039C17.0251 37.9898 18.1097 35.7034 19.971 33.1092C20.5427 32.3177 20.8651 31.7168 20.8651 31.453C20.8651 30.9107 20.3961 30.471 19.7805 30.471C19.1796 30.471 18.7399 30.9253 17.3915 32.9919C12.1151 41.053 12.0858 51.4006 17.3036 59.491C22.2868 67.1857 31.242 71.4654 40.329 70.4688C48.7126 69.5601 56.1142 64.2837 59.705 56.6623C63.2959 49.0262 62.695 40.159 58.1221 33.1092C54.4433 27.4224 48.566 23.5238 41.8973 22.3366C40.3144 22.0581 36.4597 21.9408 34.9354 22.1167Z" fill="black"/>
<path d="M35.665 26.4552C28.5272 27.3639 22.8698 31.3358 19.8212 37.5795C17.0804 43.193 17.0804 49.4074 19.8212 55.0209C22.5913 60.6783 27.7797 64.6502 34.0088 65.896C35.621 66.2038 39.4903 66.2478 41.0879 65.9547C42.7441 65.6615 45.5288 64.6942 46.9359 63.9467C55.1142 59.5498 59.2621 50.3015 57.0049 41.4489C55.1436 34.0766 49.2223 28.3899 41.7474 26.7923C40.4577 26.5138 36.8082 26.3086 35.665 26.4552ZM41.2052 28.9175C44.8693 29.709 47.9765 31.4678 50.5414 34.1499C52.8571 36.5829 54.3521 39.4263 55.0996 42.8559C55.4513 44.4535 55.4513 48.1176 55.0996 49.7445C54.3668 53.1595 52.8571 56.0175 50.4828 58.5091C42.3777 67.0393 28.3806 65.4124 22.4008 55.2407C19.1617 49.7298 19.1617 42.8706 22.4008 37.3597C25.0829 32.7868 29.6851 29.6503 34.9321 28.7856C36.4857 28.5218 39.7248 28.5951 41.2052 28.9175Z" fill="black"/>
<circle cx="37.6618" cy="39.0087" r="5.78682" stroke="#0A9995" stroke-width="1.5" stroke-dasharray="4 1"/>
<path d="M28.5599 48.5572C26.1855 49.3194 24.7345 51.1075 24.5733 53.4672L24.5 54.5811L25.2328 55.5484C30.2307 62.0999 39.054 63.7414 46.0452 59.4031C47.3056 58.6116 49.7093 56.3105 50.4568 55.1673C50.8965 54.4931 50.9258 54.3612 50.8525 53.5405C50.6766 51.4885 49.5334 49.803 47.716 48.909L46.734 48.4253L37.9401 48.396C31.1101 48.3667 29.0142 48.4107 28.5599 48.5572ZM46.3823 50.7117C47.4815 51.0488 48.4049 52.1188 48.6394 53.3499C48.7273 53.8043 48.654 53.9362 47.8772 54.8742C46.6754 56.2959 45.371 57.3218 43.6561 58.1719C41.443 59.2858 40.2998 59.535 37.6469 59.535C35.6976 59.535 35.3019 59.491 34.1587 59.1539C32.4878 58.6409 31.7403 58.2892 30.304 57.3512C28.9996 56.5011 26.933 54.4198 26.7864 53.8189C26.5373 52.8662 27.6805 51.1807 28.853 50.7704C29.6298 50.4919 45.4882 50.4479 46.3823 50.7117Z" fill="black"/>
</svg>
