<svg width="75" height="75" viewBox="0 0 75 75" fill="none" xmlns="http://www.w3.org/2000/svg">
<path d="M60.9186 66.0177L52.5844 51.5824C52.3082 51.1041 51.6966 50.9402 51.2183 51.2164L43.3992 55.7307C42.9209 56.0069 42.7571 56.6184 43.0332 57.0967L51.3674 71.532C51.812 72.302 52.9651 72.1524 53.1984 71.2944L54.3465 67.0722C54.4907 66.5421 55.0355 66.2275 55.5667 66.3678L59.7973 67.4846C60.657 67.7115 61.3631 66.7877 60.9186 66.0177Z" stroke="#0A9995" stroke-width="2"/>
<path d="M15.1942 66.3705L23.7321 51.5824C24.0082 51.1041 24.6198 50.9402 25.0981 51.2164L32.9172 55.7307C33.3955 56.0069 33.5593 56.6184 33.2832 57.0967L24.7453 71.8848C24.2981 72.6594 23.1367 72.5022 22.9115 71.6366L21.8031 67.3766C21.6626 66.8366 21.1074 66.516 20.5695 66.6644L16.326 67.8345C15.4638 68.0722 14.7469 67.145 15.1942 66.3705Z" stroke="#0A9995" stroke-width="2"/>
<path d="M36.0014 2.72016C37.1189 1.77687 38.7538 1.77687 39.8714 2.72016L46.5146 8.32732C46.9896 8.72825 47.5774 8.97173 48.1968 9.02411L56.8591 9.75668C58.3163 9.87992 59.4723 11.036 59.5956 12.4932L60.3282 21.1555C60.3805 21.7749 60.624 22.3627 61.025 22.8377L66.6321 29.4809C67.5754 30.5984 67.5754 32.2333 66.6321 33.3509L61.025 39.9941C60.624 40.4691 60.3805 41.0569 60.3282 41.6763L59.5956 50.3386C59.4723 51.7958 58.3163 52.9518 56.8591 53.0751L48.1968 53.8077C47.5774 53.86 46.9896 54.1035 46.5146 54.5044L39.8714 60.1116C38.7538 61.0549 37.1189 61.0549 36.0014 60.1116L29.3582 54.5044C28.8832 54.1035 28.2954 53.86 27.676 53.8077L19.0137 53.0751C17.5565 52.9518 16.4004 51.7958 16.2772 50.3386L15.5446 41.6763C15.4922 41.0569 15.2488 40.4691 14.8478 39.9941L9.24067 33.3509C8.29738 32.2333 8.29738 30.5984 9.24067 29.4809L14.8478 22.8377C15.2488 22.3627 15.4922 21.7749 15.5446 21.1555L16.2772 12.4932C16.4004 11.036 17.5565 9.87992 19.0137 9.75668L27.676 9.02411C28.2954 8.97173 28.8832 8.72825 29.3582 8.32732L36.0014 2.72016Z" fill="white" stroke="black" stroke-width="2"/>
<ellipse cx="37.9363" cy="30.4971" rx="13.7859" ry="13.7859" stroke="black" stroke-width="2"/>
<path d="M33.3398 31.9666L36.5099 35.1367L43.9069 27.7397" stroke="#0A9995" stroke-width="2" stroke-linecap="round" stroke-linejoin="round"/>
</svg>
