<svg width="68" height="24" viewBox="0 0 68 24" fill="none" xmlns="http://www.w3.org/2000/svg">
<path d="M0.512 20V0.559999H4.04V8.72H4.76L7.904 0.559999H11.432L7.736 9.728L11.72 20H8.12L4.76 11.048H4.04V20H0.512ZM13.4484 20V0.559999H18.2244C19.0884 0.559999 19.8644 0.639999 20.5524 0.8C21.2564 0.96 21.8564 1.232 22.3524 1.616C22.8644 1.984 23.2564 2.488 23.5284 3.128C23.8004 3.768 23.9364 4.576 23.9364 5.552C23.9364 6.336 23.8244 7.008 23.6004 7.568C23.3924 8.128 23.0804 8.576 22.6644 8.912C22.2484 9.232 21.7284 9.448 21.1044 9.56C21.8724 9.688 22.5044 9.96 23.0004 10.376C23.5124 10.776 23.8884 11.304 24.1284 11.96C24.3844 12.616 24.5124 13.408 24.5124 14.336C24.5124 15.264 24.3924 16.088 24.1524 16.808C23.9284 17.512 23.5844 18.104 23.1204 18.584C22.6724 19.048 22.1044 19.4 21.4164 19.64C20.7444 19.88 19.9524 20 19.0404 20H13.4484ZM17.0004 17.504H18.3444C19.4164 17.504 20.1444 17.248 20.5284 16.736C20.9124 16.208 21.1044 15.4 21.1044 14.312C21.1044 13.528 21.0084 12.896 20.8164 12.416C20.6404 11.92 20.3364 11.552 19.9044 11.312C19.4884 11.072 18.9284 10.952 18.2244 10.952H17.0004V17.504ZM17.0004 8.504H18.2004C18.9044 8.504 19.4484 8.4 19.8324 8.192C20.2164 7.984 20.4804 7.664 20.6244 7.232C20.7844 6.8 20.8644 6.256 20.8644 5.6C20.8644 4.912 20.7444 4.384 20.5044 4.016C20.2804 3.632 19.9364 3.376 19.4724 3.248C19.0084 3.104 18.4164 3.032 17.6964 3.032H17.0004V8.504ZM26.7598 20L27.0958 0.559999H30.7678L33.5278 14.024L36.4078 0.559999H39.9598L40.3198 20H37.6797L37.3918 6.488L34.6318 20H32.4958L29.6878 6.44L29.4238 20H26.7598ZM43.1906 20V0.559999H51.3506V3.056H46.7426V8.648H50.3666V11.12H46.7426V17.552H51.3986V20H43.1906ZM52.3522 23.864V17.48H53.0482C53.3682 17.304 53.6722 17.072 53.9602 16.784C54.2642 16.48 54.5362 16.08 54.7762 15.584C55.0162 15.088 55.2322 14.456 55.4242 13.688C55.6322 12.904 55.8082 11.952 55.9522 10.832C56.1122 9.712 56.2322 8.384 56.3122 6.848L56.7442 0.559999H65.3362V17.48H67.3762V23.864H64.9042L64.6882 20H55.1122L54.8722 23.864H52.3522ZM56.3602 17.48H61.9762V3.104H59.5282L59.3122 7.4C59.2482 8.936 59.1442 10.24 59.0002 11.312C58.8562 12.368 58.6882 13.248 58.4962 13.952C58.3042 14.64 58.0882 15.2 57.8482 15.632C57.6242 16.064 57.3842 16.416 57.1282 16.688C56.8722 16.96 56.6162 17.224 56.3602 17.48Z" fill="white"/>
</svg>
